<svg width="23" height="23" viewBox="0 0 23 23" fill="none" xmlns="http://www.w3.org/2000/svg">
<path d="M11.4902 0.862794C5.45264 0.860352 0.5625 5.74805 0.5625 11.7808C0.5625 16.5513 3.62158 20.6064 7.88184 22.0957C8.45557 22.2397 8.36768 21.832 8.36768 21.5537V19.6616C5.05469 20.0498 4.92041 17.8574 4.69824 17.4912C4.24902 16.7246 3.18701 16.5293 3.50439 16.1631C4.25879 15.7749 5.02783 16.2607 5.91895 17.5767C6.56348 18.5312 7.8208 18.3701 8.45801 18.2114C8.59717 17.6377 8.89502 17.125 9.30518 16.7271C5.87256 16.1118 4.44189 14.0171 4.44189 11.5269C4.44189 10.3184 4.83984 9.20752 5.62109 8.31152C5.12305 6.83447 5.66748 5.56982 5.74072 5.38184C7.15918 5.25488 8.63379 6.39746 8.74854 6.48779C9.5542 6.27051 10.4746 6.15576 11.5049 6.15576C12.54 6.15576 13.4629 6.27539 14.2759 6.49512C14.5518 6.28516 15.9189 5.30371 17.2373 5.42334C17.3081 5.61133 17.8403 6.84668 17.3716 8.3042C18.1626 9.20264 18.5654 10.3232 18.5654 11.5342C18.5654 14.0293 17.125 16.1265 13.6826 16.7319C13.9775 17.0219 14.2116 17.3677 14.3713 17.7492C14.531 18.1306 14.6131 18.5401 14.6128 18.9536V21.7002C14.6323 21.9199 14.6128 22.1372 14.979 22.1372C19.3027 20.6797 22.4155 16.5952 22.4155 11.7832C22.4155 5.74805 17.5229 0.862794 11.4902 0.862794Z" fill="currentColor"/>
</svg>
