<svg width="18" height="18" viewBox="0 0 18 18" fill="none" xmlns="http://www.w3.org/2000/svg">
<g clip-path="url(#clip0_2008_88)">
<path d="M5.25 8.25H6.75V9.75H5.25V8.25ZM15.75 4.5V15C15.75 15.825 15.075 16.5 14.25 16.5H3.75C3.35218 16.5 2.97064 16.342 2.68934 16.0607C2.40804 15.7794 2.25 15.3978 2.25 15L2.2575 4.5C2.2575 3.675 2.9175 3 3.75 3H4.5V1.5H6V3H12V1.5H13.5V3H14.25C15.075 3 15.75 3.675 15.75 4.5ZM3.75 6H14.25V4.5H3.75V6ZM14.25 15V7.5H3.75V15H14.25ZM11.25 9.75H12.75V8.25H11.25V9.75ZM8.25 9.75H9.75V8.25H8.25V9.75Z" fill="currentColor"/>
</g>
<defs>
<clipPath id="clip0_2008_88">
<rect width="18" height="18" fill="white"/>
</clipPath>
</defs>
</svg>
