<svg width="20" height="20" viewBox="0 0 20 20" fill="none" xmlns="http://www.w3.org/2000/svg">
<path d="M18.6667 0.25H1.33333C1.04602 0.25 0.770465 0.364137 0.567301 0.567301C0.364137 0.770465 0.25 1.04602 0.25 1.33333V18.6667C0.25 18.954 0.364137 19.2295 0.567301 19.4327C0.770465 19.6359 1.04602 19.75 1.33333 19.75H18.6667C18.954 19.75 19.2295 19.6359 19.4327 19.4327C19.6359 19.2295 19.75 18.954 19.75 18.6667V1.33333C19.75 1.04602 19.6359 0.770465 19.4327 0.567301C19.2295 0.364137 18.954 0.25 18.6667 0.25ZM6.03392 16.8651H3.13925V7.55925H6.03392V16.8651ZM4.58658 6.2885C4.14182 6.2885 3.71526 6.11182 3.40077 5.79732C3.08627 5.48282 2.90958 5.05627 2.90958 4.6115C2.90958 4.16673 3.08627 3.74018 3.40077 3.42568C3.71526 3.11118 4.14182 2.9345 4.58658 2.9345C5.03135 2.9345 5.4579 3.11118 5.7724 3.42568C6.0869 3.74018 6.26358 4.16673 6.26358 4.6115C6.26358 5.05627 6.0869 5.48282 5.7724 5.79732C5.4579 6.11182 5.03135 6.2885 4.58658 6.2885ZM16.8662 16.8651H13.9748V12.34C13.9748 11.261 13.9553 9.87325 12.4711 9.87325C10.9653 9.87325 10.7367 11.0498 10.7367 12.2642V16.8662H7.84742V7.56033H10.6208V8.83217H10.6608C11.0454 8.10092 11.9901 7.32958 13.3952 7.32958C16.3245 7.32958 16.8651 9.25575 16.8651 11.7626L16.8662 16.8651Z" fill="#3662E3"/>
</svg>
