<svg width="12" height="14" viewBox="0 0 12 14" fill="none" xmlns="http://www.w3.org/2000/svg">
<path d="M5.46045 13.7175C1.48746 7.95788 0.75 7.36676 0.75 5.25C0.75 2.3505 3.1005 0 6 0C8.8995 0 11.25 2.3505 11.25 5.25C11.25 7.36676 10.5125 7.95788 6.53955 13.7175C6.27882 14.0942 5.72115 14.0941 5.46045 13.7175ZM6 7.4375C7.20813 7.4375 8.1875 6.45813 8.1875 5.25C8.1875 4.04187 7.20813 3.0625 6 3.0625C4.79187 3.0625 3.8125 4.04187 3.8125 5.25C3.8125 6.45813 4.79187 7.4375 6 7.4375Z" fill="currentColor"/>
</svg>
