<svg width="23" height="22" viewBox="0 0 23 22" fill="none" xmlns="http://www.w3.org/2000/svg">
<path d="M3.6875 5.3125H19.3125C20.1413 5.3125 20.9362 5.65491 21.5222 6.2644C22.1083 6.8739 22.4375 7.70055 22.4375 8.5625V13.4375C22.4375 14.2995 22.1083 15.1261 21.5222 15.7356C20.9362 16.3451 20.1413 16.6875 19.3125 16.6875H3.6875C2.8587 16.6875 2.06384 16.3451 1.47779 15.7356C0.89174 15.1261 0.5625 14.2995 0.5625 13.4375V8.5625C0.5625 7.70055 0.89174 6.8739 1.47779 6.2644C2.06384 5.65491 2.8587 5.3125 3.6875 5.3125ZM3.6875 6.9375C3.2731 6.9375 2.87567 7.10871 2.58265 7.41345C2.28962 7.7182 2.125 8.13152 2.125 8.5625V13.4375C2.125 13.8685 2.28962 14.2818 2.58265 14.5865C2.87567 14.8913 3.2731 15.0625 3.6875 15.0625H19.3125C19.7269 15.0625 20.1243 14.8913 20.4174 14.5865C20.7104 14.2818 20.875 13.8685 20.875 13.4375V8.5625C20.875 8.13152 20.7104 7.7182 20.4174 7.41345C20.1243 7.10871 19.7269 6.9375 19.3125 6.9375H3.6875ZM0.5625 1.25C0.5625 1.03451 0.64481 0.827849 0.791323 0.675476C0.937836 0.523102 1.13655 0.4375 1.34375 0.4375H21.6562C21.8635 0.4375 22.0622 0.523102 22.2087 0.675476C22.3552 0.827849 22.4375 1.03451 22.4375 1.25C22.4375 1.46549 22.3552 1.67215 22.2087 1.82452C22.0622 1.9769 21.8635 2.0625 21.6562 2.0625H1.34375C1.13655 2.0625 0.937836 1.9769 0.791323 1.82452C0.64481 1.67215 0.5625 1.46549 0.5625 1.25ZM0.5625 20.75C0.5625 20.5345 0.64481 20.3278 0.791323 20.1755C0.937836 20.0231 1.13655 19.9375 1.34375 19.9375H21.6562C21.8635 19.9375 22.0622 20.0231 22.2087 20.1755C22.3552 20.3278 22.4375 20.5345 22.4375 20.75C22.4375 20.9655 22.3552 21.1722 22.2087 21.3245C22.0622 21.4769 21.8635 21.5625 21.6562 21.5625H1.34375C1.13655 21.5625 0.937836 21.4769 0.791323 21.3245C0.64481 21.1722 0.5625 20.9655 0.5625 20.75Z" fill="currentColor"/>
</svg>
