<svg width="21" height="22" viewBox="0 0 21 22" fill="none" xmlns="http://www.w3.org/2000/svg">
<path d="M2.33317 0.166672C1.73487 0.166672 1.24984 0.651702 1.24984 1.25001V3.41667H3.4165V2.33334H18.5832V19.6667H3.4165V18.5833H1.24984V20.75C1.24984 21.3483 1.73487 21.8333 2.33317 21.8333H19.6665C20.2648 21.8333 20.7498 21.3483 20.7498 20.75V1.25001C20.7498 0.651702 20.2648 0.166672 19.6665 0.166672H2.33317ZM7.74984 15.3333C7.74984 13.5384 9.20486 12.0833 10.9998 12.0833C12.7948 12.0833 14.2498 13.5384 14.2498 15.3333H7.74984ZM10.9998 11C9.80319 11 8.83317 10.03 8.83317 8.83334C8.83317 7.63672 9.80319 6.66667 10.9998 6.66667C12.1965 6.66667 13.1665 7.63672 13.1665 8.83334C13.1665 10.03 12.1965 11 10.9998 11ZM4.49984 7.75V5.58334H0.166504V7.75H4.49984ZM4.49984 9.91667V12.0833H0.166504V9.91667H4.49984ZM4.49984 16.4167V14.25H0.166504V16.4167H4.49984Z" fill="currentColor"/>
</svg>
